<mxfile host="app.diagrams.net" modified="2021-03-26T02:21:14.085Z" agent="5.0 (Macintosh; Intel Mac OS X 10_15_7) AppleWebKit/537.36 (KHTML, like Gecko) Chrome/89.0.4389.90 Safari/537.36" etag="nf7HoLhuqag6eEgLj3sh" version="14.4.8" type="github">
  <diagram id="hxi2fCgUnI-i9y5NMtJ3" name="Page-1">
    <mxGraphModel dx="929" dy="559" grid="1" gridSize="10" guides="1" tooltips="1" connect="1" arrows="1" fold="1" page="1" pageScale="1" pageWidth="850" pageHeight="1100" math="0" shadow="0">
      <root>
        <mxCell id="0" />
        <mxCell id="1" parent="0" />
        <mxCell id="Qh9pc1T8GB9FEnfaFAYC-2" value="" style="shape=cylinder3;whiteSpace=wrap;html=1;boundedLbl=1;backgroundOutline=1;size=15;fillColor=#f8cecc;strokeColor=#b85450;" vertex="1" parent="1">
          <mxGeometry x="350" y="480" width="150" height="70" as="geometry" />
        </mxCell>
        <mxCell id="Qh9pc1T8GB9FEnfaFAYC-3" value="Database" style="text;html=1;align=center;verticalAlign=middle;resizable=0;points=[];autosize=1;fontSize=16;" vertex="1" parent="1">
          <mxGeometry x="385" y="520" width="80" height="20" as="geometry" />
        </mxCell>
        <mxCell id="Qh9pc1T8GB9FEnfaFAYC-5" value="" style="endArrow=classic;html=1;fontSize=16;" edge="1" parent="1">
          <mxGeometry width="50" height="50" relative="1" as="geometry">
            <mxPoint x="360" y="490" as="sourcePoint" />
            <mxPoint x="330" y="440" as="targetPoint" />
          </mxGeometry>
        </mxCell>
        <mxCell id="Qh9pc1T8GB9FEnfaFAYC-6" value="" style="ellipse;whiteSpace=wrap;html=1;fontSize=16;fillColor=#fff2cc;strokeColor=#d6b656;rotation=-15;" vertex="1" parent="1">
          <mxGeometry x="270" y="400" width="100" height="40" as="geometry" />
        </mxCell>
        <mxCell id="Qh9pc1T8GB9FEnfaFAYC-7" value="Login" style="text;html=1;align=center;verticalAlign=middle;resizable=0;points=[];autosize=1;fontSize=16;rotation=-15;" vertex="1" parent="1">
          <mxGeometry x="295" y="410" width="50" height="20" as="geometry" />
        </mxCell>
        <mxCell id="Qh9pc1T8GB9FEnfaFAYC-9" value="" style="rounded=0;whiteSpace=wrap;html=1;fontSize=16;fillColor=#dae8fc;strokeColor=#6c8ebf;rotation=-15;" vertex="1" parent="1">
          <mxGeometry x="228.71" y="300.17" width="100" height="30" as="geometry" />
        </mxCell>
        <mxCell id="Qh9pc1T8GB9FEnfaFAYC-10" value="Login Form" style="text;html=1;align=center;verticalAlign=middle;resizable=0;points=[];autosize=1;fontSize=16;rotation=-15;" vertex="1" parent="1">
          <mxGeometry x="230" y="307" width="100" height="20" as="geometry" />
        </mxCell>
        <mxCell id="Qh9pc1T8GB9FEnfaFAYC-11" value="" style="endArrow=classic;html=1;fontSize=16;exitX=0.5;exitY=1;exitDx=0;exitDy=0;" edge="1" parent="1" source="Qh9pc1T8GB9FEnfaFAYC-9">
          <mxGeometry width="50" height="50" relative="1" as="geometry">
            <mxPoint x="280" y="340" as="sourcePoint" />
            <mxPoint x="310" y="400" as="targetPoint" />
          </mxGeometry>
        </mxCell>
        <mxCell id="Qh9pc1T8GB9FEnfaFAYC-13" value="" style="rounded=0;whiteSpace=wrap;html=1;fontSize=16;fillColor=#dae8fc;strokeColor=#6c8ebf;" vertex="1" parent="1">
          <mxGeometry x="390" y="282" width="110" height="30" as="geometry" />
        </mxCell>
        <mxCell id="Qh9pc1T8GB9FEnfaFAYC-14" value="Contact Form" style="text;html=1;strokeColor=none;fillColor=none;align=center;verticalAlign=middle;whiteSpace=wrap;rounded=0;fontSize=16;" vertex="1" parent="1">
          <mxGeometry x="372.5" y="288" width="145" height="20" as="geometry" />
        </mxCell>
        <mxCell id="Qh9pc1T8GB9FEnfaFAYC-15" value="" style="endArrow=classic;html=1;fontSize=16;" edge="1" parent="1">
          <mxGeometry width="50" height="50" relative="1" as="geometry">
            <mxPoint x="440" y="312" as="sourcePoint" />
            <mxPoint x="440" y="382" as="targetPoint" />
          </mxGeometry>
        </mxCell>
        <mxCell id="Qh9pc1T8GB9FEnfaFAYC-16" value="" style="ellipse;whiteSpace=wrap;html=1;fontSize=16;fillColor=#fff2cc;strokeColor=#d6b656;" vertex="1" parent="1">
          <mxGeometry x="390" y="383" width="100" height="40" as="geometry" />
        </mxCell>
        <mxCell id="Qh9pc1T8GB9FEnfaFAYC-17" value="Contact" style="text;html=1;strokeColor=none;fillColor=none;align=center;verticalAlign=middle;whiteSpace=wrap;rounded=0;fontSize=16;" vertex="1" parent="1">
          <mxGeometry x="420" y="393" width="40" height="20" as="geometry" />
        </mxCell>
        <mxCell id="Qh9pc1T8GB9FEnfaFAYC-19" value="" style="endArrow=classic;html=1;fontSize=16;entryX=0.587;entryY=-0.003;entryDx=0;entryDy=0;entryPerimeter=0;" edge="1" parent="1" target="Qh9pc1T8GB9FEnfaFAYC-2">
          <mxGeometry width="50" height="50" relative="1" as="geometry">
            <mxPoint x="439.40999999999997" y="423" as="sourcePoint" />
            <mxPoint x="439.40999999999997" y="470" as="targetPoint" />
            <Array as="points" />
          </mxGeometry>
        </mxCell>
        <mxCell id="Qh9pc1T8GB9FEnfaFAYC-20" value="" style="ellipse;whiteSpace=wrap;html=1;fontSize=16;fillColor=#fff2cc;strokeColor=#d6b656;" vertex="1" parent="1">
          <mxGeometry x="520" y="383" width="90" height="37" as="geometry" />
        </mxCell>
        <mxCell id="Qh9pc1T8GB9FEnfaFAYC-21" value="Text" style="text;html=1;strokeColor=none;fillColor=none;align=center;verticalAlign=middle;whiteSpace=wrap;rounded=0;fontSize=16;" vertex="1" parent="1">
          <mxGeometry x="620" y="480" width="40" height="20" as="geometry" />
        </mxCell>
      </root>
    </mxGraphModel>
  </diagram>
</mxfile>
